<svg viewBox="0 0 13 13" fill="#FFF" xmlns="http://www.w3.org/2000/svg">
    <path d="M1.67157 0.610905C1.37868 0.318012 0.903806 0.318012 0.610913 0.610905C0.31802 0.903798 0.31802 1.37867 0.610913 1.67157L1.67157 0.610905ZM11.3284 12.3891C11.6213 12.682 12.0962 12.682 12.3891 12.3891C12.682 12.0962 12.682 11.6213 12.3891 11.3284L11.3284 12.3891ZM0.610913 1.67157L11.3284 12.3891L12.3891 11.3284L1.67157 0.610905L0.610913 1.67157Z" />
    <path d="M0.610913 11.3284C0.31802 11.6213 0.31802 12.0962 0.610913 12.3891C0.903806 12.682 1.37868 12.682 1.67157 12.3891L0.610913 11.3284ZM12.3891 1.67157C12.682 1.37867 12.682 0.903798 12.3891 0.610905C12.0962 0.318012 11.6213 0.318012 11.3284 0.610905L12.3891 1.67157ZM1.67157 12.3891L12.3891 1.67157L11.3284 0.610905L0.610913 11.3284L1.67157 12.3891Z" />
</svg>