<svg width="19" height="18" viewBox="0 0 19 18" fill="black" xmlns="http://www.w3.org/2000/svg">
    <path fill-rule="evenodd" clip-rule="evenodd" d="M9.66708 2.04546C6.91155 2.04546 4.67776 4.29421 4.67776 7.06819C4.67776 9.84216 6.91155 12.0909 9.66708 12.0909C12.4226 12.0909 14.6564 9.84216 14.6564 7.06819C14.6564 4.29421 12.4226 2.04546 9.66708 2.04546ZM3.14258 7.06819C3.14258 3.44068 6.0637 0.5 9.66708 0.5C13.2705 0.5 16.1916 3.44068 16.1916 7.06819C16.1916 10.6957 13.2705 13.6364 9.66708 13.6364C6.0637 13.6364 3.14258 10.6957 3.14258 7.06819Z" />
    <path fill-rule="evenodd" clip-rule="evenodd" d="M9.66699 13.6352C8.2098 13.6352 6.77029 13.9565 5.44964 14.5765C4.12899 15.1965 2.95924 16.1001 2.02263 17.2239C1.75015 17.5509 1.26599 17.5935 0.941227 17.3192C0.616468 17.0449 0.574089 16.5575 0.846571 16.2306C1.92728 14.9339 3.27699 13.8912 4.80082 13.1759C6.32464 12.4605 7.98562 12.0898 9.66699 12.0898C11.3484 12.0898 13.0093 12.4605 14.5332 13.1759C16.057 13.8912 17.4067 14.9339 18.4874 16.2306C18.7599 16.5575 18.7175 17.0449 18.3928 17.3192C18.068 17.5935 17.5838 17.5509 17.3114 17.2239C16.3747 16.1001 15.205 15.1965 13.8843 14.5765C12.5637 13.9565 11.1242 13.6352 9.66699 13.6352Z" />
</svg>